<svg width="100" height="100" viewBox="0 0 100 100" fill="none" xmlns="http://www.w3.org/2000/svg">
<path d="M72.2991 23C80.1991 25 88.7991 29.8 92.3991 37.1C95.9991 44.4 94.5991 54.2 90.3991 61.9C86.1991 69.5 79.1991 75 71.9991 80.5C64.7991 86 57.3991 91.4 50.1991 91.1C42.9991 90.9 35.9991 84.9 31.5991 78.5C27.1991 72.1 25.3991 65.4 22.2991 58.4C19.1991 51.4 14.7991 44.3 15.8991 38.3C16.9991 32.3 23.5991 27.5 30.1991 25C36.7991 22.6 43.3991 22.4 50.2991 22C57.1991 21.6 64.3991 20.9 72.2991 23Z" fill="url(#paint0_linear_224_13)"/>
<defs>
<linearGradient id="paint0_linear_224_13" x1="15.7266" y1="91.112" x2="93.4541" y2="18.3383" gradientUnits="userSpaceOnUse">
<stop stop-color="#D1F8E7"/>
<stop offset="1" stop-color="#5AE4A7"/>
</linearGradient>
</defs>
</svg>
