<svg width="100" height="100" viewBox="0 0 100 100" fill="none" xmlns="http://www.w3.org/2000/svg">
<path d="M76.6007 16.6001C82.3007 23.2001 83.4007 33.5001 83.0007 42.5001C82.5007 51.5001 80.6007 59.0001 76.3007 64.0001C72.0007 69.1001 65.4007 71.6001 59.0007 73.3001C52.6007 75.0001 46.4007 75.9001 41.4007 74.0001C36.3007 72.0001 32.3007 67.3001 26.0007 61.4001C19.7007 55.5001 11.1007 48.6001 9.60067 40.5001C8.20067 32.3001 13.9007 23.0001 21.8007 16.8001C29.7007 10.6001 39.9007 7.50011 50.1007 7.40011C60.4007 7.20011 70.8007 10.0001 76.6007 16.6001Z" fill="url(#paint0_linear_224_15)"/>
<defs>
<linearGradient id="paint0_linear_224_15" x1="9.38867" y1="75.0643" x2="76.8184" y2="1.64446" gradientUnits="userSpaceOnUse">
<stop stop-color="#D1F8E7"/>
<stop offset="1" stop-color="#5AE4A7"/>
</linearGradient>
</defs>
</svg>
