<!--?xml version="1.0" standalone="no"?-->
              <svg id="sw-js-blob-svg" viewBox="0 0 100 100" xmlns="http://www.w3.org/2000/svg" version="1.1">
                    <defs> 
                        <linearGradient id="sw-gradient" x1="0" x2="1" y1="1" y2="0">
                            <stop id="stop1" stop-color="rgba(245, 98, 175, 1)" offset="0%"></stop>
                            <stop id="stop2" stop-color="rgba(254, 204, 143, 1)" offset="100%"></stop>
                        </linearGradient>
                    </defs>
                <path fill="url(#sw-gradient)" d="M23.1,-36.7C29.9,-31.6,35.5,-25.1,37,-18C38.5,-10.9,36,-3,34.8,5C33.6,13,33.7,21.2,29.3,24.1C24.8,27.1,15.7,24.8,8.2,26.3C0.7,27.7,-5.2,32.9,-11,33.1C-16.7,33.4,-22.2,28.7,-23.9,22.9C-25.7,17,-23.7,10.1,-25.1,3.3C-26.6,-3.5,-31.6,-10.1,-30.4,-14.4C-29.2,-18.6,-21.8,-20.6,-15.7,-26C-9.6,-31.4,-4.8,-40.4,1.7,-43C8.1,-45.5,16.3,-41.8,23.1,-36.7Z" width="100%" height="100%" transform="translate(50 50)" stroke-width="0" style="transition: all 0.3s ease 0s;"></path>
              </svg>