<!--?xml version="1.0" standalone="no"?-->
              <svg id="sw-js-blob-svg" viewBox="0 0 100 100" xmlns="http://www.w3.org/2000/svg" version="1.1">
                    <defs> 
                        <linearGradient id="sw-gradient" x1="0" x2="1" y1="1" y2="0">
                            <stop id="stop1" stop-color="rgba(245, 98, 175, 1)" offset="0%"></stop>
                            <stop id="stop2" stop-color="rgba(254, 204, 143, 1)" offset="100%"></stop>
                        </linearGradient>
                    </defs>
                <path fill="url(#sw-gradient)" d="M22.3,-27C30.2,-25,38.8,-20.2,42.4,-12.9C46,-5.6,44.6,4.2,40.4,11.9C36.2,19.5,29.2,25,22,30.5C14.8,36,7.4,41.4,0.2,41.1C-7,40.9,-14,34.9,-18.4,28.5C-22.8,22.1,-24.6,15.4,-27.7,8.4C-30.8,1.4,-35.2,-5.7,-34.1,-11.7C-33,-17.7,-26.4,-22.5,-19.8,-25C-13.2,-27.4,-6.6,-27.6,0.3,-28C7.2,-28.4,14.4,-29.1,22.3,-27Z" width="100%" height="100%" transform="translate(50 50)" stroke-width="0" style="transition: all 0.3s ease 0s;"></path>
              </svg>